<svg viewBox="0 0 100 100" xmlns="http://www.w3.org/2000/svg" fill="none">
<g transform="translate(-1, 8.43) scale(1.18)">
<path d="M18.2502 41.56C16.4902 41.56 14.9168 41.3733 13.5302 41C12.1435 40.6533 10.9568 40.1333 9.97016 39.44C8.98349 38.7467 8.21016 37.88 7.65016 36.84C7.11682 35.7733 6.82349 34.5733 6.77016 33.24L12.5302 31.52C12.5835 32.6667 12.8768 33.6133 13.4102 34.36C13.9435 35.1067 14.6635 35.6667 15.5702 36.04C16.4768 36.3867 17.4902 36.56 18.6102 36.56C19.6235 36.56 20.4768 36.44 21.1702 36.2C21.8902 35.9333 22.4368 35.6 22.8102 35.2C23.1835 34.7733 23.3702 34.32 23.3702 33.84C23.3702 33.2267 23.1168 32.72 22.6102 32.32C22.1302 31.92 21.4502 31.5867 20.5702 31.32C19.7168 31.0267 18.7168 30.7467 17.5702 30.48C16.3168 30.16 15.0635 29.8133 13.8102 29.44C12.5835 29.04 11.4635 28.5467 10.4502 27.96C9.46349 27.3733 8.66349 26.6133 8.05016 25.68C7.46349 24.72 7.17016 23.5333 7.17016 22.12C7.17016 20.4667 7.58349 19.04 8.41016 17.84C9.26349 16.64 10.4768 15.7067 12.0502 15.04C13.6502 14.3733 15.5568 14.04 17.7702 14.04C20.0102 14.04 21.9435 14.3867 23.5702 15.08C25.1968 15.7467 26.4502 16.7067 27.3302 17.96C28.2102 19.1867 28.6502 20.6533 28.6502 22.36L22.8502 23.8C22.8502 23 22.7302 22.3067 22.4902 21.72C22.2768 21.1333 21.9435 20.64 21.4902 20.24C21.0635 19.84 20.5302 19.5333 19.8902 19.32C19.2502 19.1067 18.5168 19 17.6902 19C16.7302 19 15.9168 19.12 15.2502 19.36C14.6102 19.5733 14.1168 19.88 13.7702 20.28C13.4502 20.6533 13.2902 21.0933 13.2902 21.6C13.2902 22.2133 13.5435 22.72 14.0502 23.12C14.5835 23.52 15.2902 23.8667 16.1702 24.16C17.0768 24.4267 18.1035 24.6933 19.2502 24.96C20.3968 25.2267 21.5702 25.5467 22.7702 25.92C23.9702 26.2933 25.0902 26.7867 26.1302 27.4C27.1702 27.9867 28.0102 28.7733 28.6502 29.76C29.2902 30.7467 29.6102 32 29.6102 33.52C29.6102 35.2 29.1568 36.64 28.2502 37.84C27.3702 39.04 26.0768 39.96 24.3702 40.6C22.6902 41.24 20.6502 41.56 18.2502 41.56ZM33.2008 41V14.6H44.3608C45.7208 14.6 46.9741 14.7067 48.1208 14.92C49.2674 15.1333 50.2941 15.4533 51.2008 15.88C52.1074 16.3067 52.8808 16.84 53.5208 17.48C54.1608 18.0933 54.6408 18.8133 54.9608 19.64C55.3074 20.4667 55.4808 21.3867 55.4808 22.4C55.4808 23.28 55.3341 24.0933 55.0408 24.84C54.7474 25.5867 54.2941 26.2533 53.6808 26.84C53.0941 27.4 52.3474 27.8667 51.4408 28.24C50.5341 28.5867 49.4541 28.84 48.2008 29V29.48C49.7741 29.6133 50.9874 29.96 51.8408 30.52C52.7208 31.0533 53.3874 31.76 53.8408 32.64C54.3208 33.4933 54.7074 34.4933 55.0008 35.64L56.4808 41H49.3208L48.2408 36.04C48.0274 35.0267 47.7208 34.2267 47.3208 33.64C46.9474 33.0533 46.4408 32.64 45.8008 32.4C45.1608 32.16 44.3608 32.04 43.4008 32.04H39.6408V41H33.2008ZM39.6408 27.2H43.8008C45.3741 27.2 46.5874 26.8933 47.4408 26.28C48.3208 25.6667 48.7608 24.72 48.7608 23.44C48.7608 22.1333 48.3608 21.1733 47.5608 20.56C46.7874 19.92 45.5874 19.6 43.9608 19.6H39.6408V27.2ZM65.1661 41V14.6H71.6461V41H65.1661ZM57.8461 20V14.6H79.0061V20H57.8461Z" fill="black"/>
</g>
<g transform="translate(-77.08, 33.27) scale(1.05)">
<path d="M81.0287 41L84.6127 30.44H88.3887L91.9727 41H89.1567L86.6287 32.456H86.3727L83.8447 41H81.0287ZM83.1567 39.016V37.288H90.2287V39.016H83.1567ZM97.8531 41.224C97.0211 41.224 96.2744 41.112 95.6131 40.888C94.9517 40.664 94.3864 40.3227 93.9171 39.864C93.4584 39.4053 93.1064 38.8453 92.8611 38.184C92.6264 37.512 92.5091 36.728 92.5091 35.832C92.5091 34.9147 92.6317 34.1093 92.8771 33.416C93.1224 32.7227 93.4744 32.136 93.9331 31.656C94.4024 31.176 94.9517 30.8187 95.5811 30.584C96.2104 30.3387 96.9091 30.216 97.6771 30.216C98.2851 30.216 98.8397 30.2907 99.3411 30.44C99.8531 30.5893 100.296 30.8133 100.669 31.112C101.042 31.4 101.33 31.752 101.533 32.168C101.746 32.5733 101.858 33.0373 101.869 33.56L99.4851 34.216C99.4851 33.7787 99.3891 33.4213 99.1971 33.144C99.0157 32.8667 98.7811 32.6587 98.4931 32.52C98.2157 32.3707 97.9117 32.296 97.5811 32.296C97.3144 32.296 97.0371 32.3547 96.7491 32.472C96.4717 32.5787 96.2157 32.7653 95.9811 33.032C95.7464 33.288 95.5597 33.6293 95.4211 34.056C95.2824 34.4827 95.2131 35.016 95.2131 35.656C95.2131 36.488 95.3304 37.16 95.5651 37.672C95.7997 38.184 96.1251 38.5627 96.5411 38.808C96.9571 39.0427 97.4157 39.16 97.9171 39.16C98.4717 39.16 98.8984 39.0427 99.1971 38.808C99.5064 38.5627 99.7251 38.2587 99.8531 37.896C99.9811 37.5333 100.05 37.1653 100.061 36.792L102.301 37.144C102.29 37.72 102.205 38.2587 102.045 38.76C101.885 39.2613 101.629 39.6987 101.277 40.072C100.936 40.4347 100.482 40.7173 99.9171 40.92C99.3517 41.1227 98.6637 41.224 97.8531 41.224ZM102.794 41L106.378 30.44H110.154L113.738 41H110.922L108.394 32.456H108.138L105.61 41H102.794ZM104.922 39.016V37.288H111.994V39.016H104.922ZM116.265 41V38.92H119.321C119.876 38.92 120.34 38.8027 120.713 38.568C121.086 38.3333 121.364 37.9813 121.545 37.512C121.737 37.0427 121.833 36.456 121.833 35.752C121.833 35.1867 121.774 34.7013 121.657 34.296C121.54 33.8907 121.364 33.56 121.129 33.304C120.905 33.0373 120.612 32.84 120.249 32.712C119.897 32.584 119.481 32.52 119.001 32.52H116.265V30.44H118.905C120.217 30.44 121.289 30.648 122.121 31.064C122.953 31.48 123.561 32.0773 123.945 32.856C124.329 33.624 124.521 34.5467 124.521 35.624C124.521 36.456 124.42 37.176 124.217 37.784C124.025 38.392 123.758 38.904 123.417 39.32C123.076 39.7253 122.681 40.056 122.233 40.312C121.796 40.5573 121.332 40.7333 120.841 40.84C120.361 40.9467 119.881 41 119.401 41H116.265ZM115.065 41V30.44H117.641V41H115.065ZM126.315 41V30.44H128.907V41H126.315ZM128.187 41V38.92H134.699V41H128.187ZM128.187 36.616V34.744H133.883V36.616H128.187ZM128.187 32.504V30.44H134.651V32.504H128.187ZM136.424 41V30.44H140.28L143.032 38.04H143.112L145.8 30.44H149.48V41H147.048L147.192 33.064H147.016L143.96 41H141.848L138.856 33.064H138.68L138.824 41H136.424ZM154.618 41V37.752L150.666 30.44H153.77L155.866 35.448H155.962L158.058 30.44H161.13L157.21 37.72V41H154.618Z" fill="#2A21FF"/>
</g>
</svg>
